<svg width="121" height="132" viewBox="0 0 121 132" fill="none" xmlns="http://www.w3.org/2000/svg">
<path d="M48 4.21688C55.735 -0.248941 65.265 -0.248941 73 4.21688L107.756 24.2831C115.491 28.7489 120.256 37.0021 120.256 45.9338V86.0662C120.256 94.9979 115.491 103.251 107.756 107.717L73 127.783C65.265 132.249 55.735 132.249 48 127.783L13.2442 107.717C5.50922 103.251 0.744247 94.9979 0.744247 86.0662V45.9338C0.744247 37.0021 5.50922 28.7489 13.2442 24.2831L48 4.21688Z" fill="white"/>
<path d="M120.256 85.5317V86.0662C120.256 94.9979 115.491 103.251 107.756 107.717L73 127.783C65.265 132.249 55.735 132.249 48 127.783L13.2442 107.717C12.6716 107.386 12.1152 107.035 11.5758 106.664L9 98L17.5 65L25 53L47 75.5L74 35.5L120.256 85.5317Z" fill="#066C61"/>
<path d="M9.67259 105.216C6.12816 102.242 3.49543 98.3537 2.03917 94.0093L2 93.5C3.16667 80.5 8.2 53.8 19 51C33 47.3704 40 93.5 40 93.5C40 93.5 46.2204 29.2562 65.5 30.5C81 31.5 87 63.5 83 122L82.9793 122.022L73 127.783C69.6083 129.741 65.8715 130.841 62.0923 131.082C69.0658 118.943 68.4064 71.0186 65 53.5C63.0082 59.0157 61.439 67.5009 59.7456 76.6575C55.9128 97.3824 51.4439 121.546 40 122.5C39.5761 122.535 39.1559 122.513 38.7396 122.437L34.9536 120.251C27.748 113.272 22.1804 91.8558 20 80C19.603 90.7195 15.561 102.982 13.5451 107.891L13.2442 107.717C12.9834 107.566 12.7259 107.411 12.4718 107.252L9.67259 105.216Z" fill="#B3DBC9"/>
</svg>
